<?xml version="1.0" encoding="UTF-8"?>
<svg width="79px" height="79px" viewBox="0 0 79 79" version="1.1" xmlns="http://www.w3.org/2000/svg" xmlns:xlink="http://www.w3.org/1999/xlink">
    <!-- Generator: sketchtool 58 (101010) - https://sketch.com -->
    <title>4492F103-A696-4959-B6C4-C89BB7D471C1</title>
    <desc>Created with sketchtool.</desc>
    <g id="HomePerú-PAP-271019-sprint9" stroke="none" stroke-width="1" fill="none" fill-rule="evenodd">
        <g id="1-Homemobile-cmrpuntos" transform="translate(-20.000000, -7.000000)" fill-rule="nonzero">
            <g id="CMR_PuntosLogo" transform="translate(20.000000, 7.000000)">
                <g id="Group" transform="translate(62.927586, 13.348276)">
                    <path d="M9.29748276,47.8058966 C16.4537931,24.0895517 0.523034483,5.88686207 0.523034483,5.88686207 C-0.0272413793,5.2357931 0.038137931,4.26327586 0.664689655,3.68031034 L4.06713793,0.46037931 C4.74544828,-0.174344828 5.81331034,-0.103517241 6.41534483,0.602034483 C11.5585172,6.62237931 14.7811724,14.121931 15.6065862,22.041 C16.5355172,30.968 14.279931,40.4153103 9.29748276,47.8058966 Z" id="Path" fill="#3A71B2"></path>
                    <path d="M7.69024138,22.8745862 C7.03917241,16.6281379 4.54931034,10.6513793 0.523034483,5.88686207 C0.523034483,5.88686207 16.4537931,24.0895517 9.29748276,47.8058966 C8.93517241,48.3725172 8.532,48.9091724 8.137,49.4594483 C7.57310345,50.244 6.77765517,51.192 5.97948276,52.1263793 C4.76996552,53.542931 -0.433137931,47.7977241 1.94775862,44.4606552 C6.52975862,38.0371379 8.47206897,30.3714138 7.69024138,22.8745862 Z" id="Path" fill="#003891"></path>
                </g>
                <g id="Group" transform="translate(13.620690, 0.000000)">
                    <path d="M47.2065862,6.4562069 C23.5447241,-0.879896552 6.17017241,15.0127241 6.17017241,15.0127241 C5.51365517,15.5602759 4.54113793,15.484 3.96362069,14.8547241 L0.422241379,11.5203793 C-0.207034483,10.8366207 -0.0354137931,9.86410345 0.675586207,9.26751724 C6.73406897,4.17065517 14.1382759,1.08148276 22.0627931,0.316 C30.9979655,-0.544827586 39.7397241,1.59906897 47.2065862,6.4562069 Z" id="Path" fill="#6CA63C"></path>
                    <path d="M22.8255517,8.20510345 C16.5600345,8.8262069 11.0218621,11.079069 6.17289655,15.0127241 C6.17289655,15.0127241 23.5474483,-0.879896552 47.2093103,6.4562069 C47.7732069,6.82396552 48.328931,7.19989655 48.8764828,7.59762069 C49.2987241,7.90272414 50.0914483,8.532 51.5052759,9.68703448 C52.9463448,10.8638621 47.2120345,16.116 43.8531724,13.765069 C37.7184138,9.46637931 30.3251034,7.46413793 22.8255517,8.20510345 Z" id="Path" fill="#35783C"></path>
                </g>
                <g id="Group" transform="translate(0.000000, 13.075862)">
                    <path d="M6.68231034,4.6827931 C-0.38137931,28.4291034 15.484,46.5773103 15.484,46.5773103 C16.037,47.2283793 15.9307586,48.2281379 15.306931,48.8138276 L11.790069,52.1263793 C11.1144828,52.7638276 10.1801034,52.6385172 9.57534483,51.9356897 C4.40765517,45.9371379 1.22313793,38.5193103 0.365034483,30.6029655 C-0.596586207,21.6786897 1.69441379,12.0815517 6.68231034,4.6827931 Z" id="Path" fill="#EEB500"></path>
                    <path d="M8.295,29.7775517 C8.98148276,36.182 11.4713448,41.7501379 15.484,46.5773103 C15.484,46.5773103 -0.38137931,28.4291034 6.68231034,4.68551724 C7.04189655,4.11889655 7.46141379,3.55227586 7.85096552,2.99927586 C8.15062069,2.57431034 8.81258621,1.76524138 9.99213793,0.345965517 C11.1825862,-1.0842069 16.3965862,4.65010345 14.0102414,7.98172414 C9.62710345,14.1083103 7.45596552,21.9238621 8.295,29.7775517 Z" id="Path" fill="#E66000"></path>
                </g>
                <g id="Group" transform="translate(13.348276, 63.472414)">
                    <path d="M4.14886207,8.59193103 C27.6799655,16.3366552 45.741,0.389551724 45.741,0.389551724 C46.4056897,-0.14437931 47.3782069,-0.0544827586 47.9448276,0.585689655 L51.4426207,3.85193103 C52.0582759,4.54658621 51.962931,5.61172414 51.2437586,6.19741379 C45.0981034,11.1907586 37.1572414,14.6013793 29.2191034,15.2306552 C20.2675862,15.9362069 11.5312759,13.5771034 4.14886207,8.59193103 Z" id="Path" fill="#C90045"></path>
                    <path d="M28.5816552,7.19172414 C34.8444483,6.69593103 40.8784138,4.29324138 45.741,0.386827586 C45.741,0.386827586 27.6799655,16.333931 4.14886207,8.5892069 C3.6122069,8.22144828 3.60675862,8.216 3.05103448,7.81827586 C2.6287931,7.51589655 1.77068966,6.90024138 0.378655172,5.70162069 C-1.03244828,4.48665517 4.93341379,-0.754586207 8.24868966,1.65627586 C14.3098966,6.06393103 21.0684828,7.78831034 28.5816552,7.19172414 Z" id="Path" fill="#892D43"></path>
                </g>
                <g id="Group" transform="translate(14.710345, 27.513793)" fill="#3B4143">
                    <g transform="translate(0.000000, 8.172414)">
                        <path d="M30.7636897,4.68551724 C31.1505172,4.68551724 31.3112414,4.34227586 31.2921724,4.13796552 L31.2921724,3.16 L31.2921724,2.59065517 L31.2948966,2.58248276 L28.993,2.58248276 L28.993,0.0762758621 L28.9712069,0.0817241379 L28.993,0.065326082 L27.0125517,0.065326082 C26.5494483,0.0599310345 26.3505862,0.474 26.3778276,0.72462069 L26.3778276,1.89327586 L26.3778276,2.58248276 L24.7052069,2.58248276 L24.7052069,4.67189655 L26.3778276,4.67189655 L26.3778276,7.73382759 L26.3778276,8.69544828 C26.3778276,10.5424138 27.7181034,11.2561379 29.4615517,11.2561379 C30.0772069,11.2561379 30.7228276,11.2043793 31.2948966,10.9946207 L31.2948966,8.81531034 C31.0687931,9.02506897 30.513069,9.06048276 30.2324828,9.06048276 C29.2000345,9.06048276 29.0256897,8.5102069 28.9984483,7.73382759 C28.9984483,7.65755172 28.993,7.57582759 28.993,7.49955172 L28.993,4.68551724 L30.7636897,4.68551724 Z" id="Path"></path>
                        <path d="M4.97972414,8.99510345 C3.99358621,8.99510345 3.30710345,8.50748276 3.01562069,7.73382759 C2.91210345,7.46413793 2.85489655,7.16175862 2.85489655,6.82941379 C2.85489655,5.54089655 3.64762069,4.65827586 4.97972414,4.65827586 C6.2982069,4.65827586 7.09365517,5.54089655 7.09365517,6.82941379 C7.09365517,7.16175862 7.03917241,7.46686207 6.93565517,7.73382759 C6.64689655,8.50748276 5.95768966,8.99510345 4.97972414,8.99510345 M5.52182759,2.33186207 C4.32048276,2.33186207 3.2962069,3.05375862 2.89031034,3.67758621 L2.85489655,3.67758621 L2.85489655,2.54706897 L0.239724138,2.54706897 L0.239724138,15.3995517 L1.69713793,15.3995517 C2.50893103,15.3042069 2.78134483,14.7239655 2.85762069,14.2063793 L2.85762069,10.1937241 L2.89575862,10.1937241 C3.49234483,11.0273103 4.72910345,11.3242414 5.82965517,11.3242414 C7.92724138,11.3242414 9.30837931,9.70065517 9.65706897,7.73655172 C9.71427586,7.41237931 9.74696552,7.09365517 9.74696552,6.76131034 C9.74696552,4.1652069 8.06617241,2.33186207 5.52182759,2.33186207" id="Shape"></path>
                        <path d="M21.1502069,2.41631034 C20.0741724,2.41631034 19.3032414,2.91210345 18.8782759,3.45965517 L18.7393448,3.66124138 C18.7393448,3.66124138 18.7475172,3.44058621 18.7393448,3.36431034 L18.7393448,3.35886207 L18.7366207,3.32344828 L18.7366207,3.28803448 L18.7338966,3.28258621 L18.7284483,3.23082759 L18.7121034,3.17634483 L18.7012069,3.13275862 L18.6821379,3.07282759 L18.6576207,3.0237931 L18.6303793,2.96658621 L18.5976897,2.91482759 L18.5513793,2.85762069 L18.5077931,2.81675862 L18.4505862,2.76772414 L18.4015517,2.73231034 L18.3171034,2.69417241 L18.2626207,2.67237931 L18.0937241,2.63151724 L16.1241724,2.63151724 L16.1241724,6.84575862 C16.1241724,7.15631034 16.1023793,7.46141379 16.0533448,7.73927586 C15.9144138,8.45572414 15.5330345,9.006 14.555069,9.006 C13.6424828,9.006 13.3428276,8.42031034 13.2447586,7.73927586 C13.2011724,7.42055172 13.1902759,7.0882069 13.1902759,6.77493103 L13.1902759,2.6287931 L11.3078966,2.6287931 C11.0763448,2.64786207 10.6350345,2.75682759 10.5751034,3.2962069 L10.5751034,7.29796552 C10.5751034,7.45051724 10.5887241,7.58944828 10.5887241,7.73655172 C10.6595517,9.77965517 11.2425172,11.3078966 13.7187586,11.3078966 C14.7893448,11.3078966 15.5657241,10.8093793 15.9934138,10.2618276 L16.0833103,10.131069 L16.2222414,9.88589655 L16.2222414,10.2427586 L16.2222414,10.3054138 L16.2222414,10.3190345 L16.2276897,10.3953103 L16.2276897,10.408931 L16.2331379,10.428 L16.2522069,10.5178966 L16.2576552,10.5424138 L16.2848966,10.6268621 L16.2903448,10.6404828 C16.3693448,10.8502414 16.5491379,11.0681724 16.9441379,11.1008621 L17.4807931,11.1008621 L18.742069,11.1008621 L18.742069,7.73655172 L18.742069,6.87844828 C18.742069,5.78062069 18.9436552,4.72093103 20.3111724,4.72093103 C21.6568966,4.72093103 21.6732414,5.97403448 21.6732414,6.94655172 L21.6732414,7.73655172 L21.6732414,11.0981379 L24.2938621,11.0981379 L24.2938621,7.73655172 L24.2938621,6.42896552 C24.2884138,4.15431034 23.7953448,2.41631034 21.1502069,2.41631034" id="Path"></path>
                        <path d="M36.7377241,8.99510345 C35.7624828,8.99510345 35.0705517,8.50748276 34.7845172,7.73382759 C34.6864483,7.46958621 34.6319655,7.16993103 34.6319655,6.84575862 C34.6319655,5.56813793 35.4246897,4.69368966 36.7377241,4.69368966 C38.0507586,4.69368966 38.8434828,5.56813793 38.8434828,6.84575862 C38.8434828,7.16993103 38.789,7.46958621 38.690931,7.73382759 C38.4048966,8.50748276 37.7129655,8.99510345 36.7377241,8.99510345 M36.7377241,2.38906897 C34.1062069,2.38906897 32.0058966,4.13796552 32.0058966,6.84848276 C32.0058966,7.15903448 32.0413103,7.45051724 32.0903448,7.73655172 C32.4989655,9.9322069 34.4085862,11.3078966 36.7377241,11.3078966 C39.0614138,11.3078966 40.9710345,9.9322069 41.3796552,7.73655172 C41.4314138,7.45051724 41.4722759,7.15903448 41.4722759,6.84848276 C41.4695517,4.13796552 39.3637931,2.38906897 36.7377241,2.38906897" id="Shape"></path>
                        <path d="M49.0126897,7.73655172 C48.3697931,5.42375862 44.7031034,6.20286207 44.7031034,5.056 C44.7031034,4.55203448 45.2261379,4.36134483 45.6647241,4.36134483 C46.2912759,4.36134483 46.7952414,4.6037931 47.1766207,5.07234483 L48.7865862,3.48689655 C47.9993103,2.65331034 46.7625517,2.37817241 45.6456552,2.37817241 C43.8613448,2.37817241 42.0852069,3.24444828 42.0852069,5.23306897 C42.0852069,7.02827586 43.4527241,7.46686207 44.6622414,7.73655172 C45.6320345,7.94903448 46.4983103,8.06344828 46.4983103,8.66003448 C46.4983103,9.11768966 45.9044483,9.27024138 45.3078621,9.27024138 C44.5260345,9.27024138 43.9457931,8.94334483 43.4608966,8.34948276 L41.87,10.1065517 C42.7090345,10.961931 44.0166207,11.2615862 45.2016207,11.2615862 C47.0213448,11.2615862 49.1162069,10.6323103 49.1162069,8.4747931 C49.118931,8.19148276 49.078069,7.9572069 49.0126897,7.73655172" id="Path"></path>
                    </g>
                    <g>
                        <path d="M4.27144828,7.26527586 C4.65827586,7.26527586 5.00151724,7.21896552 5.30117241,7.12634483 C5.60082759,7.03372414 5.87868966,6.93837931 6.13748276,6.84303448 C6.24917241,6.794 6.33089655,6.78582759 6.37993103,6.81306897 C6.42896552,6.84031034 6.47255172,6.90024138 6.51341379,6.98741379 L6.92475862,7.85913793 C6.98196552,7.97082759 7.00103448,8.058 6.98468966,8.11248276 C6.96834483,8.16968966 6.92475862,8.21872414 6.8512069,8.25686207 C6.41534483,8.52382759 5.95768966,8.70362069 5.47824138,8.79624138 C4.9987931,8.88886207 4.5247931,8.93517241 4.05624138,8.93517241 C3.39427586,8.93517241 2.8222069,8.83710345 2.34275862,8.63824138 C1.86331034,8.43937931 1.46558621,8.15606897 1.15503448,7.78558621 C0.844482759,7.41510345 0.615655172,6.96017241 0.465827586,6.42351724 C0.316,5.88686207 0.242448276,5.28210345 0.242448276,4.61468966 C0.242448276,3.95272414 0.337793103,3.35068966 0.525758621,2.81131034 C0.716448276,2.27193103 0.980689655,1.80610345 1.31848276,1.41927586 C1.65627586,1.03244828 2.06762069,0.732793103 2.54706897,0.523034483 C3.02651724,0.313275862 3.55772414,0.209758621 4.13796552,0.209758621 C4.54931034,0.209758621 4.95248276,0.245172414 5.34748276,0.313275862 C5.74248276,0.38137931 6.12931034,0.520310345 6.51068966,0.730068966 C6.60058621,0.779103448 6.65234483,0.828137931 6.66868966,0.874448276 C6.68503448,0.923482759 6.66596552,1.01610345 6.60875862,1.15231034 L6.23282759,1.98862069 C6.19196552,2.10303448 6.15110345,2.17113793 6.1047931,2.19565517 C6.0612069,2.22017241 5.9822069,2.212 5.8677931,2.17113793 C5.57631034,2.06489655 5.30662069,1.98862069 5.056,1.93413793 C4.80537931,1.88237931 4.52751724,1.85513793 4.21968966,1.85513793 C3.88734483,1.85513793 3.59586207,1.92596552 3.34251724,2.06762069 C3.08917241,2.20927586 2.87396552,2.40268966 2.69962069,2.64786207 C2.52527586,2.89303448 2.39451724,3.18451724 2.30734483,3.51958621 C2.21744828,3.85465517 2.17386207,4.21968966 2.17386207,4.61468966 C2.17386207,5.00968966 2.20927586,5.36927586 2.28282759,5.69344828 C2.35637931,6.01762069 2.47351724,6.29548276 2.63424138,6.52975862 C2.79496552,6.76403448 3.01017241,6.94655172 3.27441379,7.07458621 C3.54410345,7.20262069 3.87644828,7.26527586 4.27144828,7.26527586 Z" id="Path"></path>
                        <path d="M14.634069,3.92275862 L14.5605172,3.92275862 L14.0647241,5.04782759 L13.0595172,7.27617241 C12.9696207,7.48593103 12.8797241,7.62758621 12.7871034,7.70113793 C12.6944828,7.77468966 12.5555517,7.81010345 12.3703103,7.81010345 L11.7056207,7.81010345 C11.5040345,7.81010345 11.3651034,7.77468966 11.2888276,7.70113793 C11.2125517,7.62758621 11.1253793,7.48865517 11.0273103,7.27617241 L10.2754483,5.70162069 L9.52358621,4.06713793 L9.45003448,4.06713793 L9.45003448,8.55924138 C9.45003448,8.67093103 9.43096552,8.74175862 9.39010345,8.76627586 C9.34924138,8.7907931 9.27841379,8.80168966 9.17217241,8.80168966 L7.93813793,8.80168966 C7.84824138,8.80168966 7.78013793,8.7907931 7.73110345,8.76627586 C7.68206897,8.74175862 7.65755172,8.67365517 7.65755172,8.55924138 L7.65755172,1.16048276 C7.65755172,0.852655172 7.71475862,0.634724138 7.83189655,0.506689655 C7.94903448,0.378655172 8.14789655,0.313275862 8.4312069,0.313275862 L9.13403448,0.313275862 C9.36013793,0.313275862 9.52631034,0.356862069 9.63527586,0.441310345 C9.74424138,0.525758621 9.84775862,0.672862069 9.94310345,0.88262069 L11.2615862,3.83831034 L12.0134483,5.55724138 L12.0624828,5.55724138 L12.8851724,3.66941379 L14.1192069,0.909862069 C14.2172759,0.691931034 14.3235172,0.53937931 14.4406552,0.449482759 C14.5577931,0.359586207 14.7457586,0.316 15.0045517,0.316 L15.5984138,0.316 C15.8572069,0.316 16.0506207,0.370482759 16.1786552,0.479448276 C16.3066897,0.588413793 16.372069,0.795448276 16.372069,1.10327586 L16.372069,8.56196552 C16.372069,8.67365517 16.353,8.74448276 16.3121379,8.769 C16.2712759,8.79351724 16.2004483,8.80441379 16.0942069,8.80441379 L14.8955862,8.80441379 C14.8056897,8.80441379 14.7403103,8.79351724 14.6967241,8.769 C14.6531379,8.74448276 14.6313448,8.67637931 14.6313448,8.56196552 L14.6313448,3.92275862 L14.634069,3.92275862 Z" id="Path"></path>
                        <path d="M22.929069,4.83262069 C23.2042069,4.9552069 23.3976207,5.12410345 23.5093103,5.34748276 C23.621,5.57086207 23.7163448,5.82148276 23.7871724,6.1047931 L24.4055517,8.52655172 C24.4218966,8.57558621 24.4191724,8.6327931 24.4001034,8.70089655 C24.3810345,8.769 24.3211034,8.80441379 24.2257586,8.80441379 L22.9535862,8.80441379 C22.8636897,8.80441379 22.771069,8.79351724 22.6757241,8.77444828 C22.5776552,8.75537931 22.5095517,8.68455172 22.4686897,8.56196552 L21.9347586,6.41806897 C21.8312414,6.02306897 21.6732414,5.74793103 21.468931,5.59537931 C21.2618966,5.44282759 20.9785862,5.36655172 20.6162759,5.36655172 L19.4421724,5.36655172 L19.4421724,8.55106897 C19.4421724,8.66548276 19.4258276,8.73358621 19.3931379,8.76355172 C19.3604483,8.7907931 19.2841724,8.80713793 19.1643103,8.80713793 L17.8676207,8.80713793 C17.7695517,8.80713793 17.6987241,8.78806897 17.6551379,8.75265517 C17.6115517,8.71724138 17.5897586,8.64913793 17.5897586,8.5537931 L17.5897586,1.05968966 C17.5897586,0.817241379 17.6387931,0.634724138 17.7341379,0.509413793 C17.8322069,0.384103448 18.0256207,0.321448276 18.3143793,0.321448276 L21.2809655,0.321448276 C22.1608621,0.321448276 22.8418966,0.544827586 23.3213448,0.986137931 C23.8007931,1.43017241 24.0405172,2.02675862 24.0405172,2.77862069 C24.0405172,3.18996552 23.9424483,3.5767931 23.7490345,3.94182759 C23.5556207,4.30413793 23.2777586,4.58472414 22.9127241,4.77813793 L22.929069,4.83262069 Z M22.1554138,2.89575862 C22.1554138,2.79224138 22.1417931,2.68327586 22.1118276,2.56886207 C22.0845862,2.45717241 22.0301034,2.35365517 21.9483793,2.26103448 C21.8666552,2.16841379 21.7576897,2.09213793 21.6214828,2.0322069 C21.4825517,1.97227586 21.310931,1.94231034 21.1011724,1.94231034 L19.4557931,1.94231034 L19.4557931,3.87917241 L21.0657586,3.87917241 C21.4198966,3.87917241 21.6923103,3.78927586 21.8775517,3.60675862 C22.060069,3.42151724 22.1554138,3.18451724 22.1554138,2.89575862 Z" id="Shape"></path>
                    </g>
                </g>
            </g>
        </g>
    </g>
</svg>